<?xml version="1.0" encoding="utf-8"?>
<!-- Generator: Adobe Illustrator 19.0.0, SVG Export Plug-In . SVG Version: 6.00 Build 0)  -->
<svg version="1.1" id="Layer_1" xmlns="http://www.w3.org/2000/svg" xmlns:xlink="http://www.w3.org/1999/xlink" x="0px" y="0px"
	 viewBox="0 0 500 500" style="enable-background:new 0 0 500 500;" xml:space="preserve">
<style type="text/css">
	.st0{clip-path:url(#XMLID_30_);fill:#0A0D0E;}
	.st1{clip-path:url(#XMLID_30_);fill:#FFFFFF;}
</style>
<g id="XMLID_1_">
	<g id="XMLID_2_">
		<defs>
			<rect id="XMLID_3_" x="67.5" y="68.7" width="365" height="362.7"/>
		</defs>
		<clipPath id="XMLID_30_">
			<use xlink:href="#XMLID_3_"  style="overflow:visible;"/>
		</clipPath>
		<path id="XMLID_4_" class="st0" d="M239.5,215.7c0,13.8-11.2,25-25,25H92.5c-13.8,0-25-11.2-25-25V93.6c0-13.8,11.2-25,25-25
			h122.1c13.8,0,25,11.2,25,25V215.7z"/>
		<path id="XMLID_5_" class="st0" d="M432.5,215.7c0,13.8-11.2,25-25,25H285.5c-13.8,0-25-11.2-25-25V93.6c0-13.8,11.2-25,25-25
			h122.1c13.8,0,25,11.2,25,25V215.7z"/>
		<path id="XMLID_6_" class="st0" d="M239.5,406.4c0,13.8-11.2,25-25,25H92.5c-13.8,0-25-11.2-25-25V284.3c0-13.8,11.2-25,25-25
			h122.1c13.8,0,25,11.2,25,25V406.4z"/>
		<path id="XMLID_7_" class="st0" d="M432.5,406.4c0,13.8-11.2,25-25,25H285.5c-13.8,0-25-11.2-25-25V284.3c0-13.8,11.2-25,25-25
			h122.1c13.8,0,25,11.2,25,25V406.4z"/>
		<path id="XMLID_8_" class="st1" d="M346.7,129c-7.8,0-14.2,2.4-19.2,7.3c-5,4.9-7.5,11.1-7.5,18.7c0,7.4,2.5,13.5,7.5,18.3
			c5,4.9,11.3,7.3,18.9,7.3c7.6,0,13.9-2.5,19-7.5c5.1-5,7.6-11.2,7.6-18.6c0-7.2-2.5-13.3-7.6-18.2
			C360.4,131.4,354.1,129,346.7,129 M346.3,119.7c10.5,0,19.3,3.3,26.3,10c7,6.7,10.5,15,10.5,25.1c0,10-3.5,18.4-10.6,24.9
			c-7.1,6.6-16,9.9-26.7,9.9c-10.3,0-18.8-3.3-25.7-9.9c-6.8-6.6-10.3-14.8-10.3-24.7c0-10.2,3.4-18.6,10.3-25.3
			C327.1,123,335.8,119.7,346.3,119.7"/>
		<path id="XMLID_11_" class="st1" d="M147.9,320h-12.2v50.7h12.5c4.9,0,8.7-0.3,11.4-1c2.7-0.7,4.9-1.5,6.8-2.5
			c1.8-1,3.5-2.3,4.9-3.8c4.8-4.9,7.2-11,7.2-18.5c0-7.3-2.5-13.3-7.4-17.9c-1.8-1.7-3.9-3.1-6.3-4.2c-2.4-1.1-4.6-1.8-6.7-2.2
			C156,320.2,152.6,320,147.9,320 M125.9,376.3v-61.8c0-1.9,1.4-3.1,3.2-3.1h19.7c9.3,0,16.6,1.4,22,4.2c5.4,2.8,9.7,6.9,12.9,12.3
			c3.2,5.4,4.8,11.3,4.8,17.7c0,4.5-0.9,8.9-2.6,13.1c-1.8,4.2-4.3,7.8-7.5,11c-3.3,3.3-7.2,5.7-11.6,7.4c-2.6,1-4.9,1.7-7.1,2
			c-2.1,0.3-6.2,0.5-12.3,0.5c0,0-16.1,0-18.4,0C127.1,379.4,125.9,377.7,125.9,376.3"/>
		<path id="XMLID_14_" class="st1" d="M361.9,370.7l-25.5,0v-21.2l23.7,0c2.4-0.1,4.3-2,4.3-4.4c0-2.4-1.9-4.4-4.4-4.4l-23.6,0V320
			h24.4l0.1,0c2.4,0,4.3-1.9,4.3-4.3c0-2.4-1.9-4.3-4.3-4.3c-0.1,0-22.8,0-31.2,0c-1.8,0-3.1,1.5-3.1,3.1v61.8
			c0,1.8,1.4,3.1,3.1,3.1c8.6,0,32,0,32.1,0c2.4,0,4.4-2,4.4-4.4C366.3,372.6,364.4,370.7,361.9,370.7"/>
		<path id="XMLID_15_" class="st1" d="M177.6,176.2c-0.7,0-1.9,0.4-1.9,0.4c-5.8,2.7-11.7,4-17.7,4c-7.9,0-14.4-2.4-19.5-7.2
			c-5.1-4.8-7.6-11-7.6-18.4c0-7.4,2.6-13.6,7.7-18.5c5.1-4.9,11.6-7.4,19.4-7.4c5.5,0,11,1.1,16.7,3.5c0.6,0.3,1.4,0.5,2.1,0.5
			c2.5,0,4.6-2.1,4.6-4.6c0-2-1.7-3.8-3-4.3c-7.6-2.9-14.6-4.4-20.9-4.4c-10.4,0-19.1,3.4-26.2,10.1c-7.1,6.8-10.6,15.1-10.6,25
			c0,6.2,1.5,12,4.6,17.4c3.1,5.4,7.3,9.6,12.6,12.6c5.3,3.1,11.8,4.6,19.4,4.6c8,0,15.4-1.5,21.8-4.4c1.9-0.7,3-2.5,3-4.3
			C182.3,178.3,180.2,176.2,177.6,176.2"/>
	</g>
</g>
</svg>
